# xmcd
#
# Track frame offsets: 
#        150
#        11432
#        23375
#        32658
#        59311
#        72249
#        84345
#        97132
#        109711
#        121746
#        134742
#        147619
#        159425
#        172728
#        185029
#        199475
#        215660
#        228404
#        241910
#        254587
#        268220
#        280938
#        294539
#        306068
#        315375
#
# Disc length: 4325 seconds
#
# Revision: 2
# Processed by: cddbd v1.5.2PL0 Copyright (c) Steve Scherf et al.
# Submitted via: ExactAudioCopy v1.1
#
DISCID=6f10e319
DTITLE=Compilations - Essential Texas Blues
DYEAR=2012
DGENRE=Blues
TTITLE0=T-Bone Walker - Strollin' With Bones
TTITLE1=Frankie Lee Sims - Lucy Mae Blues
TTITLE2=Peppermint Harris - Angel Child
TTITLE3=Clarence 'Gatemouth' Brown - She Winked Her Eye
TTITLE4=Jimmy Nelson - Meet Me With Your Black Dress On
TTITLE5=Clarence Garlow - Route 90
TTITLE6=Goree Carter - Every Dog Has Its Day
TTITLE7=Clarence Samuels - Lollypop Mama
TTITLE8=Little Willie Littlefield - Hurry Baby
TTITLE9=Lightnin' Hopkins - Jack Head Boogie
TTITLE10=Big Mama Thornton - Nightmare
TTITLE11=Smokey Hogg - Comin' Out Blues
TTITLE12=Lil' Son Jackson - Gambling Blues
TTITLE13=Henry Thomas - Fishing Blues
TTITLE14=Blind Willie Johnson - Motherless Children
TTITLE15=Luther Stoneham - Sittin' Here Wonderin'
TTITLE16=Sonny Boy Johnson - Quinsella
TTITLE17=Lightnin' Hopkins - Give Me Central 209
TTITLE18=L.C. Williams - You Can't Take It With You Baby
TTITLE19=Pee Wee Crayton - When It Rains It Pours
TTITLE20=Elmore Nixon - Playboy Blues
TTITLE21=Smokey Hogg - Shake A Leg
TTITLE22=Jimmy McCracklin - Looking For A Woman
TTITLE23=Mance Lipscomb - Sugar Babe
TTITLE24=Ray Sharpe - That's The Way I Feel
EXTD=
EXTT0=
EXTT1=
EXTT2=
EXTT3=
EXTT4=
EXTT5=
EXTT6=
EXTT7=
EXTT8=
EXTT9=
EXTT10=
EXTT11=
EXTT12=
EXTT13=
EXTT14=
EXTT15=
EXTT16=
EXTT17=
EXTT18=
EXTT19=
EXTT20=
EXTT21=
EXTT22=
EXTT23=
EXTT24=
PLAYORDER=
